<svg xmlns="http://www.w3.org/2000/svg" width="18" height="18" viewBox="0 0 18 18"><defs><style>.a,.b{fill:#1bc870;}.a{opacity:0.4;}</style></defs><g transform="translate(2.25 2.25)"><path class="a" d="M5.026,0H.756A.762.762,0,0,0,0,.768a.762.762,0,0,0,.756.768H5.026A.762.762,0,0,0,5.782.768.762.762,0,0,0,5.026,0" transform="translate(7.718 11.965)"/><path class="b" d="M5.482.05,9.529,3.32a.233.233,0,0,1,.038.322l-4.8,6.252a1.575,1.575,0,0,1-1.222.613l-2.619.032A.3.3,0,0,1,.634,10.3l-.6-2.588A1.6,1.6,0,0,1,.34,6.37L5.162.089A.224.224,0,0,1,5.482.05" transform="translate(0 2.878)"/><path class="a" d="M5.233,4.249l-.78.974a.224.224,0,0,1-.317.036C3.186,4.492.758,2.522.084,1.976a.231.231,0,0,1-.033-.324L.8.718A1.929,1.929,0,0,1,3.637.524l1.1.879A2.3,2.3,0,0,1,5.6,2.717a1.8,1.8,0,0,1-.365,1.532" transform="translate(6.108 0)"/></g></svg>