<svg xmlns="http://www.w3.org/2000/svg" width="18" height="18" viewBox="0 0 18 18"><defs><style>.a,.b{fill:#eb2f2f;}.a{opacity:0.4;}</style></defs><g transform="translate(2.25 1.5)"><path class="a" d="M11.467.594c0,.051-.4,5.107-.628,7.234a2.189,2.189,0,0,1-2.247,2.12c-.97.022-1.92.029-2.854.029-.992,0-1.962-.008-2.9-.029a2.188,2.188,0,0,1-2.2-2.12C.4,5.693.008.645,0,.594A.6.6,0,0,1,.144.175.533.533,0,0,1,.536,0h10.4a.547.547,0,0,1,.392.175.561.561,0,0,1,.136.418" transform="translate(1.015 5.022)"/><path class="b" d="M13.5,2.983a.542.542,0,0,0-.535-.55H10.779a.961.961,0,0,1-.931-.763l-.123-.547A1.489,1.489,0,0,0,8.3,0H5.2A1.491,1.491,0,0,0,3.767,1.159l-.115.511a.962.962,0,0,1-.931.762H.535A.542.542,0,0,0,0,2.983v.285a.547.547,0,0,0,.535.55h12.43a.547.547,0,0,0,.535-.55Z" transform="translate(0 0)"/></g></svg>