<svg xmlns="http://www.w3.org/2000/svg" width="24" height="24" viewBox="0 0 24 24"><defs><style>.a,.b{fill:#fff;}.b{opacity:0.4;}</style></defs><g transform="translate(3.5 2)"><path class="a" d="M16.27,9.645A3.884,3.884,0,0,1,15.207,6.8V6.37a5.546,5.546,0,0,0-1.2-3.746A7.041,7.041,0,0,0,8.544,0H8.456A7.071,7.071,0,0,0,3.077,2.513,5.623,5.623,0,0,0,1.793,6.37V6.8A3.8,3.8,0,0,1,.73,9.645,3.363,3.363,0,0,0,0,11.956a3.608,3.608,0,0,0,.864,2.378,4.532,4.532,0,0,0,2.9,1.413,41.646,41.646,0,0,0,4.737.247c1.593,0,3.164-.113,4.737-.247a4.532,4.532,0,0,0,2.9-1.413A3.614,3.614,0,0,0,17,11.956a3.363,3.363,0,0,0-.73-2.31" transform="translate(0)"/><path class="b" d="M4.936.08A25.6,25.6,0,0,0,.89.08C.462.179,0,.408,0,.912A1.55,1.55,0,0,0,.7,2.085h0a3.635,3.635,0,0,0,1.714.732,3.836,3.836,0,0,0,1.008,0A3.636,3.636,0,0,0,5.13,2.086h0a1.55,1.55,0,0,0,.7-1.173c0-.5-.462-.733-.89-.832" transform="translate(5.573 17.148)"/></g></svg>