<svg id="Iconly_Bulk_Notification" data-name="Iconly/Bulk/Notification" xmlns="http://www.w3.org/2000/svg" width="18" height="18" viewBox="0 0 18 18">
  <g id="Notification" transform="translate(2.625 1.5)">
    <path id="Fill_1" data-name="Fill 1" d="M12.2,7.234a2.913,2.913,0,0,1-.8-2.136v-.32a4.159,4.159,0,0,0-.9-2.809A5.281,5.281,0,0,0,6.408,0H6.342A5.3,5.3,0,0,0,2.308,1.885a4.217,4.217,0,0,0-.963,2.893V5.1a2.849,2.849,0,0,1-.8,2.136A2.522,2.522,0,0,0,0,8.967,2.706,2.706,0,0,0,.648,10.75a3.4,3.4,0,0,0,2.175,1.06,31.235,31.235,0,0,0,3.553.185c1.195,0,2.373-.085,3.553-.185A3.4,3.4,0,0,0,12.1,10.75a2.71,2.71,0,0,0,.648-1.783A2.522,2.522,0,0,0,12.2,7.234" transform="translate(0 0)" fill="#7b7b7b"/>
    <path id="Fill_4" data-name="Fill 4" d="M3.7.06A19.2,19.2,0,0,0,.667.06C.347.134,0,.306,0,.684a1.163,1.163,0,0,0,.522.88h0a2.727,2.727,0,0,0,1.286.549,2.877,2.877,0,0,0,.756,0,2.727,2.727,0,0,0,1.285-.549h0a1.163,1.163,0,0,0,.522-.88c0-.378-.347-.55-.667-.624" transform="translate(4.18 12.861)" fill="#7b7b7b" opacity="0.4"/>
  </g>
</svg>
