<svg xmlns="http://www.w3.org/2000/svg" width="24" height="24" viewBox="0 0 24 24"><defs><style>.a,.b{fill:#7b7b7b;}.b{opacity:0.4;}</style></defs><g transform="translate(2 3)"><path class="a" d="M14.517,18H5.484a5.633,5.633,0,0,1-4.034-1.413A5.332,5.332,0,0,1,0,12.654V5.338A5.32,5.32,0,0,1,1.449,1.409,5.641,5.641,0,0,1,5.484,0h9.03a5.639,5.639,0,0,1,4.034,1.409A5.321,5.321,0,0,1,20,5.338v.037H15.762a3.54,3.54,0,0,0-3.57,3.482,3.421,3.421,0,0,0,1.044,2.467,3.6,3.6,0,0,0,2.527,1.024H20v.306a5.333,5.333,0,0,1-1.449,3.933A5.632,5.632,0,0,1,14.517,18ZM4.739,3.875a.759.759,0,0,0-.761.744.731.731,0,0,0,.222.528.769.769,0,0,0,.54.221H10.39a.769.769,0,0,0,.54-.221.733.733,0,0,0,.222-.529.759.759,0,0,0-.767-.743Z"/><path class="b" d="M.037,2.4a2.018,2.018,0,0,0,2,1.6h3.25A.726.726,0,0,0,6,3.266V.734A.728.728,0,0,0,5.283,0H1.956A1.985,1.985,0,0,0,0,2.01,2.031,2.031,0,0,0,.037,2.4" transform="translate(14 6.9)"/><circle class="a" cx="1" cy="1" r="1" transform="translate(15 7.9)"/></g></svg>